<svg xmlns="http://www.w3.org/2000/svg" width="49.785" height="56.369" viewBox="0 0 49.785 56.369"><path fill="#FE862C" d="M47.996 12.776L26.682.47a3.64 3.64 0 0 0-3.58 0L1.79 12.775A3.59 3.59 0 0 0 0 15.875v24.612c0 1.27.686 2.46 1.788 3.1L23.103 55.89a3.578 3.578 0 0 0 3.58 0l21.312-12.307a3.587 3.587 0 0 0 1.79-3.1v-24.61c0-1.274-.687-2.46-1.79-3.097"/><path fill="#FFF" d="M35.678 41.822c-.295.3-.688.444-1.2.444h-.132c-1.908 0-3.46-.63-4.74-1.923-1.282-1.293-1.906-2.84-1.906-4.73l-.034-6.276c0-.888-.334-1.69-.966-2.325-1.28-1.278-3.43-1.244-4.678-.02-.635.622-.97 1.435-.97 2.35v7.624c0 .507-.15.896-.456 1.195-.31.304-.71.448-1.222.448-.51 0-.905-.146-1.203-.445-.294-.293-.44-.688-.44-1.197v-23.18c0-.508.144-.9.442-1.202.298-.3.69-.446 1.202-.446.51 0 .91.148 1.223.452.306.297.454.688.454 1.195v9.793c.275-.155.57-.3.852-.402.915-.326 1.608-.453 2.473-.453 1.888 0 3.435.624 4.728 1.908 1.29 1.285 1.918 2.825 1.918 4.71v6.274c0 .91.335 1.73.968 2.358a3.26 3.26 0 0 0 2.36.967h.132c.506 0 .896.146 1.194.454.304.312.45.713.45 1.226-.002.51-.147.902-.446 1.202"/></svg>